<?xml version="1.0" standalone="no"?>
<!DOCTYPE svg PUBLIC "-//W3C//DTD SVG 20010904//EN"
 "http://www.w3.org/TR/2001/REC-SVG-20010904/DTD/svg10.dtd">
<svg version="1.0" xmlns="http://www.w3.org/2000/svg"
 width="512.000000pt" height="512.000000pt" viewBox="0 0 512.000000 512.000000"
 preserveAspectRatio="xMidYMid meet">
<metadata>
Created by potrace 1.14, written by Peter Selinger 2001-2017
</metadata>
<g transform="translate(0.000000,512.000000) scale(0.100000,-0.100000)"
fill="#000000" stroke="none">
<path d="M1213 4781 c-18 -11 -40 -32 -49 -46 -19 -30 -22 -101 -5 -132 6 -12
59 -59 119 -104 59 -46 109 -86 112 -89 3 -3 67 -52 142 -109 76 -57 142 -109
146 -115 6 -7 -17 -64 -62 -157 -39 -80 -98 -201 -130 -270 -33 -68 -94 -196
-137 -285 -112 -234 -118 -247 -135 -321 -15 -63 -15 -213 -1 -278 3 -11 10
-56 17 -100 16 -111 19 -132 30 -195 5 -30 12 -71 14 -90 3 -19 9 -64 15 -100
6 -36 13 -83 16 -105 3 -22 8 -56 11 -75 3 -19 8 -44 9 -55 2 -11 9 -56 15
-100 6 -44 13 -91 15 -105 3 -14 7 -43 10 -65 4 -22 9 -53 11 -70 3 -16 7 -46
10 -65 2 -19 8 -60 14 -90 14 -87 21 -133 25 -167 2 -17 8 -57 14 -90 5 -32
12 -76 15 -98 8 -57 36 -232 56 -355 16 -96 16 -106 1 -118 -9 -6 -29 -23 -46
-36 -16 -14 -82 -66 -145 -116 -185 -146 -188 -150 -195 -205 -7 -48 25 -116
62 -136 22 -12 193 -14 1097 -14 l1071 0 46 22 c98 49 137 110 180 278 47 191
365 1441 385 1515 26 99 33 161 29 243 -4 93 -5 102 -19 147 -33 108 -112 359
-132 420 -13 41 -33 102 -44 135 -20 62 -112 354 -226 715 -36 113 -69 214
-73 225 -8 18 -118 365 -125 390 -14 57 -62 198 -76 226 -26 50 -82 103 -138
131 l-47 23 -935 3 c-914 2 -936 2 -967 -17z"/>
</g>
</svg>
